PathFileType	4	(X/Y/Z)	69_2_104_p1_0-278.trc
DataRate	CameraRate	NumFrames	NumMarkers	Units	OrigDataRate	OrigDataStartFrame	OrigNumFrames
60.0	60.0	5	27	m	60.0	174	279
Frame#	Time	RHip			RKnee			RAnkle			RBigToe			RSmallToe			RHeel			LHip			LKnee			LAnkle			LBigToe			LSmallToe			LHeel			Neck			Head			Nose			RShoulder			RElbow			RWrist			RThumb			RIndex			RPinky			LShoulder			LElbow			LWrist			LThumb			LIndex			LPinky			
		X1	Y1	Z1	X2	Y2	Z2	X3	Y3	Z3	X4	Y4	Z4	X5	Y5	Z5	X6	Y6	Z6	X7	Y7	Z7	X8	Y8	Z8	X9	Y9	Z9	X10	Y10	Z10	X11	Y11	Z11	X12	Y12	Z12	X13	Y13	Z13	X14	Y14	Z14	X15	Y15	Z15	X16	Y16	Z16	X17	Y17	Z17	X18	Y18	Z18	X19	Y19	Z19	X20	Y20	Z20	X21	Y21	Z21	X22	Y22	Z22	X23	Y23	Z23	X24	Y24	Z24	X25	Y25	Z25	X26	Y26	Z26	X27	Y27	Z27	
174	2.9	0.300830116651155	0.4903487157649601	0.5464990489374504	0.2618120234988698	0.5389270362635742	0.9300263815969696	0.20542010688261367	0.5966331133697019	1.3394027309143046	0.251447939540438	0.3974435079384457	1.3083983784790412	0.29342169889639963	0.43834469368240303	1.3195901123541698	0.14411035726195506	0.7450866733846465	1.467861115352412	0.09015636379443932	0.44352957597097364	0.5496998271610088	0.052247843061781304	0.4849839232301906	0.9396440164214559	0.03079163253485066	0.5752477938284649	1.3541508671924851	0.1092919819484615	0.3612298600170152	1.3168793635252583	0.03447117360075827	0.42243036834891917	1.341125034968105	0.022079860785639453	0.6485826967059555	1.4330600247823773	0.21605351322046634	0.45093291657900386	0.0003188401253555893	0.25797129686349546	0.4246039038720588	-0.24291891610414068	0.2502723603135176	0.36942265590940543	-0.11729719138100181	0.3509343137824191	0.5184991791659967	0.10523261967415055	0.38091050377456537	0.586320946987639	0.3649023685633315	0.4324260871556352	0.5760115716477018	0.5776168836301021	0.48098416232159596	0.5865858833005937	0.6765670533904494	0.5021233413239593	0.6435148631857609	0.6908154366967049	0.48026345938689935	0.6952379830691365	0.6966914088196801	0.05408275091854267	0.40689910486824693	0.06152420286107208	0.022661886016910913	0.3779024208752064	0.2997577459482916	-0.009690327882299461	0.34973728307754925	0.5210284851323466	-0.059520109612363495	0.38480585501111153	0.5944217150548411	-0.1259205747500721	0.41692066660069466	0.6202454356721462	-0.14202738608313026	0.4181931495043654	0.6225098810791224
175	2.9166666666666665	0.3002260788996653	0.49021172041842664	0.5508857709493687	0.2596687793461044	0.5216886127197413	0.9282635862265367	0.19680324293803747	0.5965379746461479	1.3410810358676586	0.2504289271071777	0.3969233171029799	1.3128831148270945	0.2887630637731097	0.4437775011690244	1.3188051768432951	0.14379270580747439	0.7448852201753318	1.4674781601647178	0.0895669617696399	0.44307897806542546	0.5533457433988257	0.05230865337526454	0.4848486796914364	0.9396118160051223	0.02748638917740852	0.5723479232693972	1.3531357317181028	0.12159740328698149	0.35424043955388995	1.3108014312895566	0.03755828972393612	0.42654978669593296	1.3425100106126435	0.01843233746129005	0.6394049010638828	1.4235652451787266	0.21594490904814362	0.4504270645575966	0.0038063695967411053	0.25806945809087856	0.42471655895705124	-0.24270145341015487	0.24708781711907102	0.36685580335454215	-0.11744419776087672	0.35115316377083594	0.5180916145292616	0.10869120153228093	0.3809112924834666	0.5863231749215289	0.36507976073729526	0.43245766520067075	0.5758184538908877	0.5776618404682042	0.48606577556353	0.5713189872424536	0.670807756789536	0.50443857106015	0.641241702187293	0.6888908896488865	0.48014528640497084	0.6971719042609327	0.7012682586372844	0.054230525436048255	0.40682210186956735	0.061527964984290626	0.023132910131670795	0.3772789136005581	0.3037572645205084	-0.008837646556672761	0.3499304324530515	0.5172160373214878	-0.05422350921581993	0.3777539261852235	0.5878371544396086	-0.12202156784255834	0.4035312972524766	0.6161126624472238	-0.1290388839129222	0.41194645711239886	0.6148856605156565
176	2.933333333333333	0.29968734732281316	0.49006904015682407	0.5552566939688333	0.25881168233490154	0.5216089687453072	0.9325421607393067	0.19688352719840382	0.5986743990918306	1.3464564315104413	0.25055076384382513	0.3973773627778338	1.3169221744280408	0.2898367351784632	0.44056499783991804	1.3222530385783982	0.14594480570059667	0.7284263972358122	1.4592013197293208	0.09146617246659879	0.43016655809267185	0.5500102594106616	0.05094120132462115	0.49748185630229086	0.9494127373343592	0.02595631091399343	0.5722920494154291	1.3578307868541883	0.12185266171340221	0.35603173449883085	1.3156713874487433	0.04480070376270577	0.41021810411497145	1.3325955927668192	0.008419437276733926	0.6440672243626413	1.4279289849547199	0.21603370495480045	0.4504187558142887	0.003942665057577025	0.2580122461889425	0.42480550148011603	-0.24260663064932803	0.24700120781610857	0.3670001170783485	-0.11740115046310232	0.35098629600445225	0.5179826861316772	0.11238200619918379	0.3810126011818928	0.5877316194447	0.3691490309645168	0.4324861777116459	0.575680997424617	0.5777664128144767	0.48604884100924806	0.5707369895910034	0.6707969494470366	0.5049771451796777	0.6282499602166488	0.68900374725856	0.4803767118388266	0.6962283947919589	0.701304921207469	0.06281083663178647	0.39701541995883133	0.06024208831616218	0.022992795004945516	0.3780402083766074	0.3041630072689386	-0.00928974612382054	0.3486763372100533	0.5247409011616969	-0.05698545394267919	0.3726392913178289	0.5908236295451668	-0.12189740873566568	0.4033930519073029	0.6163107769797668	-0.1389546976562916	0.4062062505310183	0.6145776832249827
177	2.95	0.2995465882355783	0.49168200095051845	0.5601065940803254	0.25899980012227475	0.5232369484520164	0.9377269158239866	0.19555887233592617	0.6124601338389755	1.3537478980330686	0.25135246786025695	0.39791104548384654	1.312589701985378	0.28965418368013535	0.4407632220991619	1.3224174802936566	0.1459960314243483	0.728336746964499	1.4591178098668427	0.09142975660030243	0.43114472600381204	0.5544213604294139	0.052937176090734214	0.48531259725658193	0.9494915109328338	0.025842206018030202	0.5722948981130357	1.35804095266757	0.12184086451972517	0.3560994190428646	1.3157327310859481	0.04480434338629919	0.41212812595959175	1.3377267525879792	0.008408202097779503	0.6429821757380181	1.4275275094008555	0.2160799989517979	0.4504690107142087	0.003996139504515401	0.2582077782409505	0.42464338594379736	-0.23899175216362964	0.2470286287755823	0.3669313535559187	-0.11736322356120357	0.35094710859010997	0.5181511162587711	0.11251101775114924	0.38037414568557315	0.5878372483117615	0.3733323823763343	0.43240419805185026	0.5763028947556949	0.5781968477907107	0.486451651241417	0.5723025910673357	0.6746327952761416	0.49662243910324144	0.6426941879042981	0.6943659716655601	0.4799764719860975	0.684252772681083	0.6972908271477631	0.0626272208651482	0.3980849383960698	0.06431281326369953	0.025168477417975857	0.3659367962952901	0.3016780773101353	-0.008845316833540097	0.34776710433702585	0.5284421039235067	-0.056838966977696935	0.3717550591190104	0.5909492824185689	-0.13206043467249076	0.41316535038114394	0.6229683668279025	-0.1403557831888203	0.40621755914417934	0.617896251394003
178	2.966666666666667	0.2999839124850717	0.4910472106878893	0.5639350043693673	0.2584345634772652	0.5241823675133868	0.9342812438645922	0.2056545485393959	0.5981886218588736	1.3445840102628785	0.2510862588176802	0.39832227183165153	1.312980927314961	0.29822243289474565	0.42877098130782615	1.3141966514823529	0.14400541079347778	0.7449797929211252	1.4681730917552465	0.09121339650010737	0.43008122269468985	0.5623772509082107	0.052016292642631135	0.48540507810397254	0.953800197234797	0.025790874294867656	0.5744916078866982	1.3644345630783636	0.12187242053694315	0.355988318413266	1.3157885918449195	0.044854431470944194	0.41202238905900435	1.3378249447097452	0.006837243155509504	0.654484207321327	1.4342587092849564	0.21859523576661002	0.465194773223504	0.009166051167041844	0.24974991115189354	0.4460979576800901	-0.23839618388724296	0.24706127314678195	0.3670232983165536	-0.11728979534638946	0.3541898792430785	0.5207449725308426	0.11283444765798233	0.3804177724523274	0.5877798938776703	0.37356581445506964	0.43132093234262453	0.5763999559898625	0.5824635161155672	0.48611047154581594	0.5711935843716183	0.6778384252319201	0.4963704666838871	0.6432658688029743	0.6945774860759405	0.47988866309417727	0.6845664864248626	0.6971048880160381	0.06243229236248857	0.39739089475439815	0.07149520884652155	0.02450305135829531	0.3671851481427418	0.30913558371720995	-0.017863124905413353	0.35644989546023725	0.5393100352603424	-0.07802579213739388	0.37185104882058667	0.5935336387417934	-0.14617140842106824	0.42302351379733305	0.6304795702276326	-0.14125238240607418	0.40759637035540885	0.6311462981049301
